<?xml version="1.0" standalone="no"?>
<!DOCTYPE svg PUBLIC "-//W3C//DTD SVG 20010904//EN"
 "http://www.w3.org/TR/2001/REC-SVG-20010904/DTD/svg10.dtd">
<svg version="1.0" xmlns="http://www.w3.org/2000/svg"
 width="288.000000pt" height="288.000000pt" viewBox="0 0 288.000000 288.000000"
 preserveAspectRatio="xMidYMid meet">
<metadata>
Created by potrace 1.14, written by Peter Selinger 2001-2017
</metadata>
<g transform="translate(0.000000,288.000000) scale(0.100000,-0.100000)"
fill="#000000" stroke="none">
<path d="M1859 2853 c-6 -16 -12 -35 -14 -43 -2 -8 -4 -15 -5 -15 -2 0 -4 -12
-13 -55 -5 -24 -12 -46 -25 -80 -3 -8 -6 -17 -7 -20 -19 -64 -32 -100 -42
-119 -6 -14 -10 -28 -7 -33 3 -4 1 -8 -4 -8 -5 0 -15 -18 -22 -40 -7 -21 -17
-37 -21 -34 -5 3 -9 -1 -9 -9 0 -7 -17 -32 -38 -55 -22 -23 -38 -42 -36 -42 2
0 -8 -12 -21 -26 -25 -27 -32 -49 -17 -57 11 -6 64 18 56 26 -4 4 2 7 12 7 11
0 25 5 32 12 7 7 12 8 12 1 0 -14 -52 -69 -62 -65 -4 1 -8 -5 -8 -13 0 -8 -3
-14 -7 -13 -5 2 -19 -6 -31 -17 -13 -11 -33 -28 -44 -37 -12 -10 -24 -18 -27
-18 -13 0 -70 -58 -64 -64 3 -3 1 -6 -5 -6 -6 0 -9 -7 -6 -15 4 -8 10 -12 15
-9 5 3 9 -1 9 -8 1 -10 4 -9 13 2 7 8 19 16 27 18 8 2 22 10 31 18 18 16 33
19 24 5 -3 -5 -1 -12 5 -16 5 -3 10 -1 10 5 0 6 4 8 10 5 5 -3 20 1 34 10 13
9 27 12 30 7 5 -9 -33 -71 -66 -106 -10 -11 -18 -23 -18 -28 0 -4 -6 -8 -12
-8 -7 0 -24 -9 -38 -20 -14 -11 -38 -20 -53 -20 -16 0 -26 -4 -22 -9 3 -6 -4
-8 -15 -6 -11 2 -26 -2 -34 -10 -7 -8 -16 -11 -20 -8 -6 6 -10 -12 -7 -29 2
-12 -4 -10 -26 10 -11 9 -39 33 -62 52 -22 19 -41 41 -41 48 0 7 -4 11 -9 8
-5 -3 -11 0 -14 7 -3 8 1 14 9 14 7 0 16 -7 18 -14 3 -8 11 -11 17 -7 7 4 9 3
6 -3 -4 -6 0 -13 8 -17 9 -3 15 0 15 9 0 8 7 15 15 15 8 0 15 -5 15 -11 0 -6
12 -9 28 -7 31 3 45 44 18 54 -9 3 -13 10 -10 15 3 5 1 9 -4 9 -15 0 -92 74
-92 88 0 7 -4 11 -9 7 -6 -3 -15 5 -22 17 -7 13 -20 30 -31 39 -10 9 -18 20
-18 25 0 4 5 3 12 -4 17 -17 45 -15 52 3 3 9 0 15 -9 15 -8 0 -15 4 -15 10 0
5 -15 24 -33 42 -32 33 -87 134 -87 161 0 7 -3 17 -7 21 -5 4 -8 11 -9 14 0 8
-24 91 -32 112 -3 8 -6 21 -8 29 -19 95 -40 151 -55 151 -7 0 -18 -30 -25 -67
-3 -12 -16 -57 -29 -100 -14 -43 -25 -83 -25 -90 0 -7 -5 -13 -12 -13 -6 0 -9
-2 -6 -5 3 -3 -1 -22 -9 -43 -7 -20 -16 -45 -20 -54 -3 -10 -9 -18 -13 -18 -4
0 -10 -10 -14 -22 -3 -13 -18 -37 -33 -54 -69 -77 -83 -95 -83 -109 0 -18 21
-20 38 -3 7 7 12 8 12 2 0 -5 4 -3 9 5 5 8 19 16 30 18 19 3 20 1 9 -17 -7
-11 -16 -20 -20 -20 -3 0 -13 -6 -20 -13 -28 -28 -150 -117 -159 -117 -6 0 -8
-4 -4 -9 3 -5 1 -12 -5 -16 -19 -12 -10 -31 15 -31 14 0 25 4 25 9 0 4 5 5 10
2 6 -3 10 2 10 11 0 10 3 14 7 11 3 -4 12 -2 20 4 10 9 13 8 13 -4 0 -16 27
-17 38 -1 10 13 42 17 42 5 0 -5 -7 -16 -15 -25 -8 -8 -15 -19 -15 -25 0 -6
-4 -11 -9 -11 -5 0 -12 -8 -15 -17 -8 -23 -79 -74 -106 -76 -11 -1 -20 -5 -20
-10 0 -5 -9 -7 -20 -4 -20 5 -52 -17 -62 -43 -11 -29 24 -58 68 -56 21 0 42 6
46 11 5 6 8 6 8 -1 0 -7 -11 -19 -25 -28 -30 -20 -32 -34 -5 -44 18 -7 16 -11
-25 -49 -25 -22 -45 -39 -45 -37 0 4 -87 -43 -110 -60 -21 -15 -23 -34 -5 -52
8 -9 15 -12 15 -8 0 3 6 1 13 -5 8 -6 16 -8 19 -6 14 14 52 13 63 -2 10 -14
16 -14 58 5 27 12 49 17 52 11 4 -5 -2 -9 -12 -9 -12 0 -19 -8 -20 -22 -1 -13
-9 -28 -17 -34 -9 -6 -13 -13 -11 -16 3 -3 -11 -13 -30 -24 -19 -10 -35 -22
-35 -26 0 -5 -3 -8 -8 -7 -13 2 -52 -13 -52 -20 0 -4 -6 -8 -12 -9 -28 -2
-108 -35 -108 -44 0 -5 -4 -7 -9 -4 -4 3 -19 -3 -31 -14 -22 -19 -22 -21 -6
-45 14 -21 24 -25 61 -25 25 0 45 4 45 10 0 5 12 -2 26 -15 27 -25 25 -25 132
9 13 5 22 3 22 -3 0 -6 -5 -11 -11 -11 -5 0 -8 -4 -5 -8 3 -5 -7 -15 -22 -23
-15 -8 -29 -16 -32 -19 -3 -4 -27 -14 -55 -25 -27 -10 -53 -23 -57 -29 -5 -7
-8 -6 -8 4 -1 10 -10 4 -25 -15 -14 -16 -25 -26 -25 -21 0 5 -13 -6 -30 -24
-16 -18 -30 -31 -30 -27 0 4 -11 -3 -25 -15 -25 -22 -34 -58 -14 -58 5 0 7 -4
4 -10 -6 -10 5 -12 53 -13 26 0 27 -1 5 -18 -11 -10 -14 -10 -9 -2 4 7 2 13
-3 13 -6 0 -11 -4 -11 -8 0 -5 -24 -14 -53 -21 -28 -6 -58 -15 -66 -20 -16
-10 -25 -71 -10 -71 6 0 8 -4 5 -9 -3 -5 1 -11 9 -15 23 -8 18 -25 -10 -32
-14 -3 -25 -10 -25 -15 0 -5 -5 -9 -11 -9 -17 0 -60 -50 -54 -61 4 -5 2 -9 -4
-9 -11 0 -9 -18 7 -47 9 -17 21 -22 47 -21 19 1 35 5 35 10 0 5 4 7 8 4 5 -3
20 1 35 9 14 7 28 11 31 7 3 -3 6 0 6 6 0 7 6 12 13 12 7 0 18 5 25 12 15 15
42 19 42 6 0 -6 7 -8 15 -4 10 3 15 -1 16 -12 0 -10 3 -12 6 -5 2 7 20 15 39
19 19 3 34 10 34 15 0 13 38 11 46 -2 4 -8 9 -7 15 2 5 8 9 9 9 3 0 -6 -6 -17
-14 -23 -16 -14 -10 -46 13 -76 15 -19 71 -30 71 -13 0 4 9 8 21 8 11 0 18 4
15 9 -3 5 4 11 17 15 12 3 44 26 71 50 27 25 52 43 57 40 5 -3 9 0 9 6 0 6 4
9 9 5 5 -3 12 -1 16 5 4 6 11 7 17 4 7 -4 6 -9 -2 -14 -21 -13 -15 -72 8 -88
21 -14 22 -22 22 -173 0 -131 3 -159 14 -159 8 0 16 -5 18 -10 2 -6 20 -11 40
-12 24 -1 35 -5 31 -12 -4 -6 0 -5 9 2 13 10 17 10 20 0 4 -10 8 -10 19 -1 9
7 20 9 29 3 9 -5 19 -5 26 1 7 5 16 9 20 8 23 -4 45 2 39 11 -4 6 1 7 10 3 28
-10 35 17 35 150 0 109 2 129 16 134 18 7 64 -41 86 -89 8 -18 15 -23 20 -15
5 8 8 7 8 -4 0 -14 22 -28 41 -25 3 1 12 -4 20 -11 16 -13 41 0 51 27 6 16 58
26 58 11 0 -5 14 -14 30 -21 17 -7 30 -16 30 -20 0 -6 38 -6 72 -1 4 0 17 11
28 23 20 22 21 38 4 82 -4 9 -3 16 2 15 5 -1 11 0 14 1 32 12 45 5 41 -22 0
-4 8 -10 19 -13 23 -7 22 4 22 -194 0 -114 4 -158 13 -168 8 -7 16 -13 19 -13
2 0 17 -5 33 -11 34 -14 114 -18 106 -6 -3 5 4 4 15 -2 27 -14 35 -14 26 2 -5
8 -2 8 9 -2 13 -10 17 -10 17 -1 0 9 4 9 17 -1 14 -12 16 -12 8 0 -6 11 -4 13
8 8 9 -3 18 0 21 9 3 8 11 14 18 14 9 0 8 -3 -2 -10 -8 -5 -10 -10 -5 -10 25
1 43 28 44 65 0 22 2 47 3 55 1 9 -2 28 -6 43 -3 15 -3 27 2 27 5 0 6 20 2 45
-4 24 -3 50 1 57 4 6 5 19 1 27 -10 23 -7 51 9 86 l13 30 4 -32 c2 -18 8 -33
13 -33 6 0 8 -4 4 -9 -3 -5 -1 -12 5 -16 6 -4 8 -11 5 -16 -4 -5 -3 -9 2 -9 4
0 15 -15 22 -32 8 -18 28 -47 45 -65 33 -37 86 -68 86 -51 0 7 4 7 13 0 19
-16 37 0 44 41 4 25 2 37 -6 37 -7 0 -10 4 -6 9 3 5 1 12 -4 16 -5 3 -9 14 -8
24 1 18 3 17 24 -5 13 -14 23 -28 23 -31 0 -9 42 -43 52 -43 5 0 6 -4 3 -10
-3 -5 8 -18 24 -28 33 -20 121 -29 121 -12 0 5 7 10 15 10 14 0 19 12 16 33 0
4 3 7 8 7 6 0 7 10 5 23 -3 12 -6 28 -6 35 -1 6 -6 12 -12 12 -6 0 -4 4 4 9 8
6 18 7 22 5 11 -7 36 19 39 42 3 24 -11 77 -23 85 -4 3 -1 14 8 25 11 13 17
15 20 7 3 -7 16 -13 28 -13 12 0 28 -6 35 -13 11 -9 13 -9 7 1 -9 16 6 16 23
-1 11 -9 13 -9 7 1 -5 8 0 12 15 12 34 0 88 66 83 103 -4 36 -21 57 -45 57
-11 0 -19 5 -19 10 0 6 -11 10 -25 10 -14 0 -25 5 -25 10 0 6 -5 10 -11 10 -5
0 -7 -6 -3 -12 6 -10 4 -10 -7 0 -7 6 -22 12 -34 13 -15 0 -12 3 9 9 16 5 33
7 37 4 4 -2 14 5 22 16 7 11 18 17 23 12 4 -4 2 1 -5 10 -7 9 -10 21 -7 26 6
10 -43 57 -78 76 -53 29 -76 50 -76 70 0 11 4 17 8 11 4 -5 14 -9 22 -9 8 1
37 2 64 3 27 0 46 4 43 8 -4 3 -2 12 3 18 14 16 -8 65 -28 65 -11 0 -12 3 -2
15 6 8 9 23 5 34 -7 22 -39 31 -98 27 -21 -1 -41 2 -44 8 -3 5 -1 6 5 2 7 -4
12 -2 12 3 0 13 -17 14 -24 2 -10 -15 -54 0 -59 21 -4 15 -3 17 8 8 8 -6 33
-13 55 -14 23 -2 47 -10 52 -17 8 -11 9 -10 4 3 -3 10 -1 20 4 23 11 7 9 45
-3 45 -4 0 -17 9 -29 20 -12 11 -28 20 -35 20 -7 0 -13 5 -13 10 0 6 -7 10
-15 10 -8 0 -15 5 -15 11 0 6 -6 9 -14 6 -8 -3 -17 1 -20 9 -3 9 -10 13 -15 9
-5 -3 -12 -1 -15 4 -6 9 58 6 73 -4 21 -13 48 36 33 59 -7 11 -8 16 -11 36 0
6 -10 10 -21 10 -11 0 -20 5 -20 10 0 6 -7 10 -16 10 -8 0 -21 6 -28 13 -13
13 -17 59 -4 51 4 -3 8 8 8 25 0 16 -6 31 -12 34 -22 7 -3 17 37 19 71 3 59
63 -17 82 -16 3 -28 11 -28 16 0 6 -7 10 -15 10 -18 0 -52 18 -82 44 -13 11
-23 16 -23 12 0 -4 -9 2 -21 13 -12 11 -19 25 -16 33 4 9 6 7 6 -4 1 -20 23
-15 56 11 26 21 21 59 -11 89 -13 13 -24 20 -24 18 0 -3 -14 7 -31 22 -49 42
-149 141 -149 147 0 3 7 5 17 5 9 0 13 -3 10 -7 -4 -3 5 -15 20 -24 25 -17 29
-17 45 -2 10 9 18 11 18 5 0 -7 7 -9 17 -5 11 4 14 3 9 -5 -9 -15 36 -12 46 3
11 15 10 55 -2 55 -5 0 -32 23 -60 50 -28 28 -55 50 -61 50 -6 0 -8 4 -5 8 2
4 -17 29 -43 55 -45 42 -52 57 -29 57 5 0 6 -4 3 -10 -3 -6 5 -10 18 -10 36 0
40 24 9 53 -45 42 -72 74 -72 86 0 6 -4 11 -10 11 -5 0 -10 6 -10 14 0 8 -7
22 -16 30 -8 9 -13 16 -11 16 3 0 -10 40 -28 89 -24 66 -29 93 -21 101 8 8 7
10 -4 5 -10 -3 -16 2 -17 17 -2 27 -12 77 -20 98 -4 8 -5 21 -4 28 1 6 -2 12
-8 12 -5 0 -8 8 -7 17 3 16 -21 73 -30 73 -2 0 -9 -12 -15 -27z m-379 -1096
c0 -2 -11 -19 -25 -38 l-26 -34 26 -11 25 -10 -24 -21 c-24 -21 -66 -22 -66
-2 0 5 -7 9 -15 9 -8 0 -15 5 -15 10 0 6 -6 10 -13 10 -8 0 -14 7 -14 15 0 11
3 12 14 3 19 -15 61 8 65 36 2 14 13 23 33 27 17 4 31 7 33 8 1 0 2 0 2 -2z
m-1123 -882 c0 -8 -4 -12 -9 -9 -4 3 -8 0 -8 -7 0 -7 -3 -9 -6 -6 -4 4 -1 13
6 22 15 19 17 19 17 0z m2297 -173 c2 -4 -5 -9 -17 -9 -17 -2 -19 0 -7 7 18
12 18 12 24 2z"/>
</g>
</svg>
